<?xml version="1.0" encoding="UTF-8"?>
<svg width="50px" height="53px" viewBox="0 0 50 53" version="1.1" xmlns="http://www.w3.org/2000/svg" xmlns:xlink="http://www.w3.org/1999/xlink">
    <!-- Generator: Sketch 52.2 (67145) - http://www.bohemiancoding.com/sketch -->
    <title>icon-a-3</title>
    <desc>Created with Sketch.</desc>
    <defs>
        <polygon id="path-1" points="0.108510638 2.36406619e-05 29.8957447 2.36406619e-05 29.8957447 52.2458629 0.108510638 52.2458629"></polygon>
    </defs>
    <g id="Page-1" stroke="none" stroke-width="1" fill="none" fill-rule="evenodd">
        <g id="Apply-PC" transform="translate(-747.000000, -296.000000)">
            <g id="Sec1" transform="translate(0.000000, 60.000000)">
                <g id="3" transform="translate(667.000000, 143.000000)">
                    <g id="icon-a-3" transform="translate(80.000000, 93.000000)">
                        <g id="Group-3" transform="translate(20.094563, 0.000000)">
                            <mask id="mask-2" fill="white">
                                <use xlink:href="#path-1"></use>
                            </mask>
                            <g id="Clip-2"></g>
                            <path d="M28.477305,46.8085343 C28.4748227,49.0270922 26.6770686,50.8249645 24.4583924,50.8274468 L5.54586288,50.8274468 C3.32730496,50.8249645 1.52943262,49.0270922 1.52695035,46.8085343 L1.52695035,43.7352482 L28.477305,43.7352482 L28.477305,46.8085343 Z M24.4583924,2.36406619e-05 L5.54586288,2.36406619e-05 C2.54432624,0.00345153664 0.111938534,2.43583924 0.108510638,5.43737589 L0.108510638,11.7593617 L1.52695035,11.5869031 L1.52695035,8.51066194 L20.7940898,8.51066194 C21.1856974,8.51066194 21.5033097,8.19304965 21.5033097,7.80144208 C21.5033097,7.40971631 21.1856974,7.09222222 20.7940898,7.09222222 L1.52695035,7.09222222 L1.52695035,5.43737589 C1.52943262,3.21881797 3.32730496,1.42094563 5.54586288,1.41846336 L24.4583924,1.41846336 C26.6770686,1.42094563 28.4748227,3.21881797 28.477305,5.43737589 L28.477305,7.09222222 L26.8224586,7.09222222 C26.4308511,7.09222222 26.1132388,7.40971631 26.1132388,7.80144208 C26.1132388,8.19304965 26.4308511,8.51066194 26.8224586,8.51066194 L28.477305,8.51066194 L28.477305,42.3168085 L1.52695035,42.3168085 L1.52695035,34.9110165 L0.108510638,34.9110165 L0.108510638,46.8085343 C0.111938534,49.8100709 2.54432624,52.2424586 5.54586288,52.2458865 L24.4583924,52.2458865 C27.4599291,52.2424586 29.8923168,49.8100709 29.8957447,46.8085343 L29.8957447,5.43737589 C29.8923168,2.43583924 27.4599291,0.00345153664 24.4583924,2.36406619e-05 Z" id="Fill-1" fill="#000000" mask="url(#mask-2)"></path>
                        </g>
                        <path d="M35.0966903,48.3451773 C34.5091017,48.3451773 34.0328605,47.8689362 34.0328605,47.2813475 C34.0328605,46.6937589 34.5091017,46.2175177 35.0966903,46.2175177 C35.684279,46.2175177 36.1605201,46.6937589 36.1605201,47.2813475 C36.1598109,47.8685816 35.6840426,48.3444681 35.0966903,48.3451773 M35.0966903,44.799078 C33.7257683,44.799078 32.6144208,45.9103073 32.6144208,47.2813475 C32.6144208,48.6522695 33.7257683,49.763617 35.0966903,49.763617 C36.4676123,49.763617 37.5789598,48.6522695 37.5789598,47.2813475 C37.577305,45.9110165 36.4670213,44.8006147 35.0966903,44.799078" id="Fill-4" fill="#000000"></path>
                        <path d="M20.2030733,11.7593499 C17.7121749,12.3954019 15.9683215,14.6377187 15.96513,17.2085225 L15.96513,27.2293262 L8.07777778,27.2293262 C4.97458629,27.2328723 2.45969267,29.7475296 2.45614657,32.8508392 L2.45614657,39.2234161 L0.708037825,39.226253 C0.31678487,39.226844 0,39.5442199 0,39.9354728 L0,40.6107683 C0.00200945626,42.3582861 1.4179669,43.7742435 3.16536643,43.776253 L14.7503546,43.776253 L14.7786052,43.776253 L14.8321513,43.776253 C16.2406619,43.7747163 17.3820331,42.6333452 17.3835697,41.2249527 L17.3835697,34.9110047 L22.4719858,34.9110047 C23.4312057,37.093156 25.9777778,38.084409 28.1598109,37.1251891 C29.727305,36.436182 30.7393617,34.8857092 30.7390071,33.1734161 L30.7390071,20.250721 L36.1702128,20.250721 C36.5618203,20.250721 36.8794326,19.9331087 36.8794326,19.5415012 L36.8794326,15.3664421 C36.8770686,13.2800355 35.1864066,11.5892553 33.1,11.5868913 L21.621513,11.5868913 L20.2030733,11.7593499 Z M17.3835697,31.0087589 C17.3829787,29.7048582 18.4395981,28.6472931 19.7434988,28.6467021 C21.0473995,28.6461111 22.1049645,29.7026123 22.1055556,31.0066312 L22.1055556,31.0087589 L22.1055556,33.1732979 C22.1055556,33.2807447 22.1108747,33.3870095 22.1185579,33.4924468 L17.3835695,33.4924468 L17.3835697,31.0087589 Z M15.96513,41.2249527 C15.96513,41.8506028 15.4580378,42.3579314 14.8323877,42.3579314 C14.2067376,42.3580496 13.699409,41.8508392 13.699409,41.2251891 L13.699409,41.2249527 L13.699409,39.9154965 C13.699409,39.5237707 13.3819149,39.2062766 12.9901891,39.2062766 L12.9890071,39.2062766 L3.87458629,39.221052 L3.87458629,32.8508392 C3.87730496,30.5306265 5.75756501,28.6503664 8.07777778,28.647766 L16.7965721,28.647766 C16.2579196,29.3166785 15.964539,30.1498936 15.96513,31.0087589 L15.96513,41.2249527 Z M3.16536643,42.3578132 C2.21406619,42.3563948 1.43806147,41.5950473 1.41879433,40.6438652 L12.2809693,40.626253 L12.2809693,41.2253073 C12.2804965,41.6184515 12.3713948,42.0062766 12.5465721,42.3581678 L3.16536643,42.3578132 Z M35.4609929,15.3664421 L35.4609929,18.8326359 L30.7390068,18.8326359 L30.7390071,15.3664421 C30.7384161,14.0624232 31.7949173,13.0049764 33.0989362,13.0043853 C34.4028369,13.0036761 35.4604019,14.0602955 35.4609929,15.3641962 L35.4609929,15.3664421 Z M17.3835697,17.2081678 C17.3861702,14.8879551 19.2664303,13.007695 21.586643,13.0049764 L30.1518913,13.0049764 C29.6131206,13.6740071 29.3198582,14.5074586 29.3205674,15.3664421 L29.3205674,33.1732979 C29.3206856,34.7738889 28.0231678,36.0714066 26.4225768,36.0715248 C25.1634752,36.0715248 24.0483452,35.2585225 23.6632388,34.0598227 C23.6553191,34.0217612 23.644208,33.9845272 23.6301418,33.948357 C23.5596927,33.6959929 23.5238771,33.435 23.5237589,33.1729433 L23.5237589,31.0087589 C23.5211584,29.0177423 21.9761229,27.3693972 19.9894799,27.2380733 L19.9894799,27.229208 L17.3835697,27.229208 L17.3835697,17.2081678 Z" id="Fill-6" fill="#FF5A00"></path>
                        <path d="M19.944208,17.6714184 L26.6065012,17.6714184 C26.9981087,17.6714184 27.315721,17.3538061 27.315721,16.9621986 C27.315721,16.5704728 26.9981087,16.2529787 26.6065012,16.2529787 L19.944208,16.2529787 C19.5524823,16.2529787 19.2349882,16.5704728 19.2349882,16.9621986 C19.2349882,17.3538061 19.5524823,17.6714184 19.944208,17.6714184" id="Fill-8" fill="#FF5A00"></path>
                        <path d="M19.944208,20.8955201 L26.6065012,20.8955201 C26.9981087,20.8955201 27.315721,20.5779078 27.315721,20.1863002 C27.315721,19.7945745 26.9981087,19.4770804 26.6065012,19.4770804 L19.944208,19.4770804 C19.5524823,19.4770804 19.2349882,19.7945745 19.2349882,20.1863002 C19.2349882,20.5779078 19.5524823,20.8955201 19.944208,20.8955201" id="Fill-10" fill="#FF5A00"></path>
                        <path d="M23.3827305,24.1191608 C23.7744563,24.1191608 24.0919504,23.8015485 24.0919504,23.4099409 C24.0919504,23.0182151 23.7744563,22.700721 23.3827305,22.700721 L19.9441962,22.700721 C19.5524704,22.700721 19.2349764,23.0182151 19.2349764,23.4099409 C19.2349764,23.8015485 19.5524704,24.1191608 19.9441962,24.1191608 L23.3827305,24.1191608 Z" id="Fill-12" fill="#FF5A00"></path>
                        <path d="M9.636513,32.3948936 C9.88852246,32.39513 10.0927778,32.5993853 10.0931324,32.8513948 C10.0931324,33.2431206 10.4106265,33.5606147 10.8023522,33.5606147 C11.194078,33.5606147 11.5115721,33.2431206 11.5115721,32.8513948 C11.5105083,32.0902837 11.0501064,31.4051773 10.3457329,31.1167612 L10.3457329,31.0450118 C10.3457329,30.6534043 10.0282388,30.335792 9.636513,30.335792 C9.24490544,30.335792 8.92729314,30.6534043 8.92729314,31.0450118 L8.92729314,31.1167612 C7.96890071,31.5082506 7.50932624,32.6025768 7.90093381,33.5609693 C8.18899527,34.266052 8.87492908,34.7268085 9.636513,34.7266903 C9.88852246,34.7286998 10.0911229,34.9348463 10.0889953,35.1868558 C10.0868676,35.4336643 9.88899527,35.6340189 9.64218676,35.6392199 L9.636513,35.6392199 L9.63083924,35.6392199 C9.38119385,35.6359102 9.18036643,35.4328369 9.17989362,35.1830733 C9.17989362,34.7913475 8.86239953,34.4738534 8.47067376,34.4738534 C8.07894799,34.4738534 7.7614539,34.7913475 7.7614539,35.1830733 C7.76251773,35.9441844 8.22291962,36.629409 8.92729314,36.9180615 L8.92729314,37.0425296 C8.92729314,37.4342553 9.24490544,37.7517494 9.636513,37.7517494 C10.0282388,37.7517494 10.3457329,37.4342553 10.3457329,37.0425296 L10.3457329,36.9180615 C11.3041253,36.5265721 11.763818,35.4323641 11.3724468,34.4739716 C11.0845035,33.7687707 10.3982151,33.3080142 9.636513,33.3082506 C9.38438534,33.3082506 9.17989362,33.1037589 9.17989362,32.851513 C9.17989362,32.5992671 9.38438534,32.3948936 9.636513,32.3948936" id="Fill-14" fill="#FF5A00"></path>
                        <path d="M44.5305556,7.09222222 L43.2166076,7.09222222 C42.8247636,7.09222222 42.5073877,7.40971631 42.5073877,7.80144208 C42.5073877,8.19304965 42.8247636,8.51066194 43.2166076,8.51066194 L44.5305556,8.51066194 C44.9222813,8.51066194 45.2397754,8.19304965 45.2397754,7.80144208 C45.2397754,7.40971631 44.9222813,7.09222222 44.5305556,7.09222222" id="Fill-16" fill="#000000"></path>
                    </g>
                </g>
            </g>
        </g>
    </g>
</svg>