<?xml version="1.0" encoding="UTF-8"?>
<svg width="50px" height="44px" viewBox="0 0 50 44" version="1.1" xmlns="http://www.w3.org/2000/svg" xmlns:xlink="http://www.w3.org/1999/xlink">
    <!-- Generator: Sketch 52.2 (67145) - http://www.bohemiancoding.com/sketch -->
    <title>icon-a-1-2</title>
    <desc>Created with Sketch.</desc>
    <g id="Page-1" stroke="none" stroke-width="1" fill="none" fill-rule="evenodd">
        <g id="Apply-1-PC" transform="translate(-367.000000, -327.000000)">
            <g id="Sec1" transform="translate(0.000000, 60.000000)">
                <g id="2" transform="translate(287.000000, 170.000000)">
                    <g id="icon-a-1-2" transform="translate(80.000000, 97.000000)">
                        <path d="M3.16627342,29.7495229 L16.7465291,29.7495229 C17.0386758,29.7502539 17.2753187,29.988646 17.2756299,30.2826943 C17.2767711,31.2687377 18.0706299,32.0676594 19.0501928,32.068808 L28.2669224,32.068808 C29.2464852,32.0676594 30.0404478,31.2687377 30.0414852,30.2826943 C30.0417965,29.9884372 30.2787507,29.7499406 30.5711048,29.7495229 L34.689792,29.7495229 L34.689792,33.6279115 L3.16627342,33.6279115 C2.10226195,33.6278071 1.23982753,32.7593412 1.23993128,31.6884039 C1.24013877,30.6175711 2.10246944,29.7497318 3.16627342,29.7495229 Z M5.93564962,1.25304676 L42.3502389,1.25304676 C43.2785515,1.25409097 44.0309122,2.01134889 44.0319497,2.94570409 L44.0319497,16.8142168 L41.4555397,16.8142168 L41.4555397,4.7489428 C41.4555397,4.40289305 41.1768799,4.12241942 40.8330681,4.12241942 L7.45323541,4.12241942 C7.10942359,4.12241942 6.8307638,4.40289305 6.8307638,4.7489428 L6.8307638,25.5333338 C6.8307638,25.8793836 7.10942359,26.1598572 7.45323541,26.1598572 L34.6903107,26.1598572 L34.6903107,28.4960585 L30.5717273,28.4960585 C29.591957,28.4972071 28.7982019,29.2962332 28.7970607,30.2822766 C28.7967495,30.5765338 28.5597953,30.8150303 28.2674411,30.8153436 L19.0507115,30.8153436 C18.7583573,30.8150303 18.5214031,30.5765338 18.5210919,30.2822766 C18.5199507,29.2964421 17.7265069,28.4976248 16.7470478,28.4960585 L4.25393882,28.4960585 L4.25393882,2.94570409 C4.25508002,2.01134889 5.00733696,1.25409097 5.93564962,1.25304676 Z M48.7486246,20.1406383 L35.9417899,20.1406383 C36.0111955,18.9772888 36.9678306,18.0691431 38.1257315,18.0672636 L46.5645792,18.0672636 C47.7224801,18.0691431 48.6791152,18.9772888 48.7486246,20.1406383 Z M46.5645792,42.2953403 L38.1257315,42.2953403 C36.9165804,42.2939829 35.9367064,41.3076262 35.9352539,40.0906046 L35.9352539,37.8862865 L48.7550568,37.8862865 L48.7550568,40.0906046 C48.7537081,41.3076262 47.7737303,42.2939829 46.5645792,42.2953403 Z M35.9352539,36.6332397 L48.7550568,36.6332397 L48.7550568,21.3939983 L35.9352539,21.3939983 L35.9352539,36.6332397 Z M40.2105965,16.8142168 L38.1253166,16.8142168 C36.2289568,16.8164096 34.6920744,18.3632958 34.6898957,20.2719993 L34.6898957,24.9068104 L8.07570702,24.9068104 L8.07570702,5.37546618 L40.2105965,5.37546618 L40.2105965,16.8142168 Z M3.16627342,34.8809582 L34.6903107,34.8809582 L34.6903107,40.0906046 C34.6924894,41.9994125 36.2293718,43.5461943 38.1257315,43.5483871 L46.5645792,43.5483871 C48.4610427,43.5461943 49.9979251,41.9994125 50,40.0906046 L50,20.2715816 C49.9976139,18.3629826 48.4608352,16.8164096 46.5645792,16.8142168 L45.2773079,16.8142168 L45.2773079,2.94570409 C45.2754405,1.31956266 43.9662789,0.00187957014 42.3506539,0 L5.9360646,0 C4.32043954,0.00187957014 3.01127799,1.31956266 3.00941058,2.94570409 L3.00941058,28.5005486 C1.2601616,28.5906635 -0.0853107828,30.0910826 0.00422138393,31.8517177 C0.0904337021,33.54709 1.47999783,34.8780345 3.1666884,34.880645 L3.16627342,34.8809582 Z" id="Fill-1" fill="#000000"></path>
                        <path d="M43.7023874,38.7096774 L40.975032,38.7096774 C40.6146614,38.7096774 40.3225806,39.0708333 40.3225806,39.516129 C40.3225806,39.9614247 40.6146614,40.3225806 40.975032,40.3225806 L43.7023874,40.3225806 C44.0626492,40.3225806 44.3548387,39.9614247 44.3548387,39.516129 C44.3548387,39.0708333 44.0626492,38.7096774 43.7023874,38.7096774" id="Fill-3" fill="#000000"></path>
                        <path d="M24.2122203,19.7635231 C24.2058838,19.7635231 24.1998695,19.7626659 24.1935331,19.7626659 C24.1871966,19.7626659 24.1811823,19.7634159 24.1748458,19.7635231 C23.1152567,19.7523797 22.2617645,18.8930568 22.2603683,17.8358324 C22.2603683,17.4807456 21.9718972,17.1929474 21.61598,17.1929474 C21.2601703,17.1929474 20.9715918,17.4807456 20.9715918,17.8358324 C20.9734176,19.3627914 22.0499755,20.6785627 23.5491448,20.9859689 L23.5491448,21.9377602 C23.5491448,22.292847 23.8377233,22.5806452 24.1935331,22.5806452 C24.5494502,22.5806452 24.8379213,22.292847 24.8379213,21.9377602 L24.8379213,20.9855403 C26.5817433,20.632275 27.7084562,18.9354872 27.3542574,17.1957332 C27.0491396,15.6964183 25.7269623,14.6194787 24.1935331,14.6209788 C23.1258891,14.6209788 22.2603683,13.7574771 22.2603683,12.6923238 C22.2603683,11.6271705 23.1258891,10.7636688 24.1935331,10.7636688 C25.261177,10.7636688 26.1266978,11.6271705 26.1266978,12.6923238 C26.1266978,13.0474106 26.4152763,13.3352088 26.7710861,13.3352088 C27.1270032,13.3352088 27.4154743,13.0474106 27.4154743,12.6923238 C27.4137559,11.1653648 26.3370906,9.84970063 24.8379213,9.5421873 L24.8379213,8.70740113 C24.8379213,8.35231431 24.5494502,8.06451613 24.1935331,8.06451613 C23.8377233,8.06451613 23.5491448,8.35231431 23.5491448,8.70740113 L23.5491448,9.5421873 C21.8053228,9.89545261 20.6787173,11.5922404 21.0328087,13.3319944 C21.3379265,14.8313094 22.6599964,15.908356 24.1935331,15.9067488 C25.2610696,15.9248567 26.1117695,16.8029305 26.0936192,17.8679767 C26.0760059,18.9002357 25.2466783,19.7355576 24.2122203,19.7630945 L24.2122203,19.7635231 Z" id="Fill-5" fill="#FF5A00"></path>
                        <path d="M42.7417308,27.9866134 C42.0741344,27.9866134 41.5328645,27.4481823 41.5328645,26.7838634 C41.5328645,26.1196446 42.0741344,25.5811133 42.7417308,25.5811133 C43.4094279,25.5811133 43.950597,26.1196446 43.950597,26.7838634 C43.950597,27.1160228 44.2212823,27.3852384 44.5550302,27.3852384 C44.888778,27.3852384 45.1594633,27.1160228 45.1594633,26.7838634 C45.158053,25.6874565 44.4128876,24.7301677 43.3461639,24.4546377 L43.3461639,23.9884718 C43.3461639,23.6564126 43.0754786,23.3870968 42.7417308,23.3870968 C42.4079829,23.3870968 42.1372976,23.6564126 42.1372976,23.9884718 L42.1372976,24.4546377 C40.8443144,24.7861958 40.0663082,26.0979951 40.3997538,27.3844365 C40.6751739,28.4472667 41.6386403,29.1897644 42.7417308,29.1893634 C43.4093271,29.2003886 43.9414298,29.7477401 43.9304493,30.4118586 C43.9196702,31.0557308 43.401268,31.5769225 42.7543231,31.5942621 C42.7500921,31.5942621 42.7459618,31.5935605 42.7417308,31.5935605 C42.7374997,31.5935605 42.7333694,31.5941619 42.7290377,31.5942621 C42.0668812,31.586745 41.5337711,31.05102 41.5328645,30.3921135 C41.5328645,30.0600542 41.2621792,29.7907385 40.9284313,29.7907385 C40.5946835,29.7907385 40.3239982,30.0600542 40.3239982,30.3921135 C40.3254086,31.4886206 41.0705739,32.4460096 42.1372976,32.7215396 L42.1372976,33.2695927 C42.1372976,33.6017522 42.4079829,33.8709677 42.7417308,33.8709677 C43.0754786,33.8709677 43.3461639,33.6017522 43.3461639,33.2695927 L43.3461639,32.7215396 C44.6392478,32.390182 45.4174555,31.0784828 45.0842114,29.7920414 C44.8089928,28.7289106 43.8451234,27.9861122 42.7417308,27.9866134" id="Fill-7" fill="#FF5A00"></path>
                    </g>
                </g>
            </g>
        </g>
    </g>
</svg>