<?xml version="1.0" encoding="UTF-8"?>
<svg width="50px" height="70px" viewBox="0 0 50 70" version="1.1" xmlns="http://www.w3.org/2000/svg" xmlns:xlink="http://www.w3.org/1999/xlink">
    <!-- Generator: Sketch 52.2 (67145) - http://www.bohemiancoding.com/sketch -->
    <title>icon-a-1</title>
    <desc>Created with Sketch.</desc>
    <defs>
        <polygon id="path-1" points="2.71554595e-05 0.0380054645 49.8941257 0.0380054645 49.8941257 65.3005464 2.71554595e-05 65.3005464"></polygon>
    </defs>
    <g id="Page-1" stroke="none" stroke-width="1" fill="none" fill-rule="evenodd">
        <g id="Apply-PC" transform="translate(-227.000000, -277.000000)">
            <g id="Sec1" transform="translate(0.000000, 60.000000)">
                <g id="1" transform="translate(147.000000, 143.000000)">
                    <g id="icon-a-1" transform="translate(80.000000, 74.000000)">
                        <g id="Group-3" transform="translate(0.000000, 4.644809)">
                            <mask id="mask-2" fill="white">
                                <use xlink:href="#path-1"></use>
                            </mask>
                            <g id="Clip-2"></g>
                            <path d="M12.7964481,34.4814481 C13.5864754,35.6796721 14.5105191,36.7839071 15.5502732,37.7736612 C16.4075137,38.5844536 17.6202186,38.900847 18.7644809,38.6116393 C19.9306011,38.320929 20.8669399,37.4535792 21.2467213,36.3134153 C21.7289617,34.7568579 21.9579235,33.1329508 21.9237705,31.5035792 L21.9237705,4.69961749 C21.9237705,3.4123224 22.9672131,2.36874317 24.2545082,2.36874317 C25.5418033,2.36874317 26.5852459,3.4123224 26.5852459,4.69961749 L26.5852459,29.1728415 C26.5852459,29.8168306 27.1069672,30.3385519 27.7509563,30.3385519 C28.3942623,30.3385519 28.9159836,29.8168306 28.9159836,29.1728415 L28.9159836,18.6847268 C28.9159836,17.3974317 29.9601093,16.3539891 31.2468579,16.3539891 C32.5340164,16.3539891 33.5780055,17.3974317 33.5780055,18.6847268 L33.5780055,29.1728415 C33.5780055,29.8168306 34.0997268,30.3385519 34.7431694,30.3385519 C35.3870219,30.3385519 35.9088798,29.8168306 35.9088798,29.1728415 L35.9088798,22.1806284 C35.9088798,20.8933333 36.9523224,19.8497541 38.2396175,19.8497541 C39.5269126,19.8497541 40.5703552,20.8933333 40.5703552,22.1806284 L40.5703552,30.3385519 C40.5703552,30.9818579 41.0920765,31.5035792 41.7355191,31.5035792 C42.3793716,31.5035792 42.9010929,30.9818579 42.9010929,30.3385519 L42.9010929,28.0076776 C42.8995902,27.3893716 43.1460383,26.7962022 43.5851093,26.3609563 C44.0657104,25.8844536 44.7277322,25.637459 45.4031421,25.6828142 C46.6621585,25.8471585 47.5935792,26.9354098 47.5625683,28.2046721 L47.5625683,46.6539891 C47.5625683,46.7110929 47.5035519,52.4810383 43.9687158,55.711776 C43.2777322,56.3631421 42.8904372,57.2743443 42.9010929,58.2239344 L42.9010929,61.8041257 C42.9010929,62.4481148 42.3793716,62.9696995 41.7355191,62.9696995 L23.0893443,62.9696995 C22.4454918,62.9696995 21.9237705,62.4481148 21.9237705,61.8041257 L21.9237705,61.3778962 C21.9252732,59.1933333 21.0476776,57.0998907 19.4894809,55.5692896 C17.5150273,53.652623 13.9838798,49.886776 12.5178962,46.2207923 C10.1193989,40.2280328 5.37418033,31.9522131 2.93620219,29.5143716 C2.38128415,28.96 2.19562842,28.4467486 2.38456284,27.9900546 C2.80696721,27.258224 3.5976776,26.8169672 4.44275956,26.8421038 C6.02663934,26.8421038 10.3210383,30.7684699 12.7964481,34.4814481 Z M28.9159836,4.69961749 C28.9159836,2.12502732 26.8290984,0.0380054645 24.2545082,0.0380054645 C21.679918,0.0380054645 19.5928962,2.12502732 19.5928962,4.69961749 L19.5928962,31.5035792 C19.6259563,32.8793989 19.4387978,34.2509836 19.0381148,35.5676503 C18.9132514,35.9565847 18.5948087,36.2531694 18.1979508,36.350847 C17.8244536,36.4452459 17.4285519,36.3411475 17.1490437,36.0755738 C16.2389344,35.207541 15.4301913,34.2388251 14.7393443,33.1877322 C12.7169399,30.162459 7.62800546,24.5113661 4.44275956,24.5113661 C2.6534153,24.474071 1.00765027,25.4854098 0.232513661,27.0987978 C-0.307923497,28.5401913 0.114071038,30.1662842 1.28825137,31.1621858 C3.51284153,33.3884153 8.08797814,41.4247541 10.3525956,47.0875956 C11.8980874,50.9500273 15.2915301,54.7408743 17.8659836,57.241694 C18.9740437,58.3322678 19.5961749,59.8228415 19.5928962,61.3778962 L19.5928962,61.8041257 C19.5928962,63.7354098 21.1581967,65.3005738 23.0893443,65.3005738 L41.7355191,65.3005738 C43.6666667,65.3005738 45.2319672,63.7354098 45.2319672,61.8041257 L45.2319672,58.2239344 C45.2213115,57.9278962 45.3338798,57.6403279 45.5428962,57.4306284 C49.8442623,53.4972951 49.8934426,46.9313115 49.8934426,46.6539891 L49.8934426,28.2046721 C49.936612,25.7090437 48.0550546,23.599071 45.5711749,23.3579508 C44.6375683,23.296612 43.7072404,23.5180601 42.9010929,23.9927869 L42.9010929,22.1806284 C42.9107923,20.5012568 42.0113388,18.9482514 40.5494536,18.1207923 C39.088388,17.2933333 37.2937158,17.3210656 35.8586066,18.1938798 C35.7094262,16.6217486 34.7651639,15.2358197 33.3572404,14.5214754 C31.9487705,13.8071311 30.273224,13.8631421 28.9159836,14.6707923 L28.9159836,4.69961749 Z" id="Fill-1" fill="#000000" mask="url(#mask-2)"></path>
                        </g>
                        <path d="M44.0661885,50.1335383 C44.7101776,50.1335383 45.2318989,49.6118169 45.2318989,48.9679645 L45.2318989,41.9756148 C45.2318989,41.3321721 44.7101776,40.8105874 44.0661885,40.8105874 C43.4228825,40.8105874 42.9011612,41.3321721 42.9011612,41.9756148 L42.9011612,48.9679645 C42.9011612,49.6118169 43.4228825,50.1335383 44.0661885,50.1335383" id="Fill-4" fill="#000000"></path>
                        <path d="M42.9011202,57.1258333 C43.21,57.1258333 43.5067213,57.0032923 43.7247541,56.7844399 C44.6115027,55.9639481 45.150847,54.835123 45.2319945,53.6293852 C45.2309016,53.0000137 44.724071,52.4884016 44.0944262,52.480888 C43.4580874,52.4685929 42.928306,52.9669536 42.9011202,53.6027459 C42.8135519,54.1944126 42.5224317,54.7370355 42.0769399,55.1364891 C41.7440164,55.469959 41.6442896,55.9709153 41.8246175,56.4061612 C42.0048087,56.8420902 42.4295355,57.1258333 42.9011202,57.1258333" id="Fill-6" fill="#000000"></path>
                        <path d="M25.4201093,65.2838661 L26.5851366,65.2838661 C27.2291257,65.2838661 27.7509836,64.7621448 27.7509836,64.1181557 C27.7509836,63.4748497 27.2291257,62.9529918 26.5851366,62.9529918 L25.4201093,62.9529918 C24.7762568,62.9529918 24.2543989,63.4748497 24.2543989,64.1181557 C24.2543989,64.7621448 24.7762568,65.2838661 25.4201093,65.2838661" id="Fill-8" fill="#000000"></path>
                        <path d="M31.2468033,65.2838661 L39.4047268,65.2838661 C40.0487158,65.2838661 40.5703005,64.7621448 40.5703005,64.1181557 C40.5703005,63.4748497 40.0487158,62.9529918 39.4047268,62.9529918 L31.2468033,62.9529918 C30.6033607,62.9529918 30.0816393,63.4748497 30.0816393,64.1181557 C30.0816393,64.7621448 30.6033607,65.2838661 31.2468033,65.2838661" id="Fill-10" fill="#000000"></path>
                        <path d="M14.9314071,19.2958333 C15.396571,19.2958333 15.8169262,19.0200137 16.0014891,18.5932377 C16.1861885,18.1664617 16.0997131,17.6708333 15.7812705,17.3320355 C11.7432923,13.064276 11.5240301,6.45498634 15.2706148,1.92903005 C15.5475273,1.60949454 15.6297678,1.16509563 15.4856421,0.767691257 C15.3411066,0.370150273 14.9927459,0.0820355191 14.575123,0.0148224044 C14.1572268,-0.0522540984 13.7363251,0.111953552 13.4744399,0.444330601 C8.98045082,5.87520492 9.24083333,13.8047131 14.0820902,18.9287568 C14.3024454,19.1630464 14.6096858,19.2958333 14.9314071,19.2958333" id="Fill-12" fill="#FF5A00"></path>
                        <path d="M35.131571,16.2085929 C35.4062978,16.3494399 35.7263798,16.3756694 36.0203689,16.2805874 C36.3147678,16.1857787 36.5591667,15.9781284 36.699877,15.7028552 C39.2478279,10.7415164 38.5927732,4.73892077 35.0344399,0.444248634 C34.7731011,0.112008197 34.351653,-0.0523360656 33.9338934,0.0148770492 C33.5168169,0.0820901639 33.1683197,0.370204918 33.0237842,0.76760929 C32.8792486,1.16501366 32.9613525,1.60941257 33.2388115,1.9290847 C36.2038388,5.50654372 36.7496038,10.5073634 34.6269262,14.6402869 C34.3329372,15.2125546 34.5591667,15.9147404 35.131571,16.2085929" id="Fill-14" fill="#FF5A00"></path>
                        <path d="M28.9159973,17.3854781 C31.8084836,15.7439481 33.5903142,12.670041 33.5780191,9.34435792 C33.5780191,4.1951776 29.4035656,0.0212704918 24.2543852,0.0212704918 C19.1053415,0.0212704918 14.9314344,4.1951776 14.9314344,9.34435792 C14.9191393,12.670041 16.7009699,15.7439481 19.5929098,17.3854781 L19.5929098,14.563347 C18.1008333,13.2403962 17.2509699,11.3384836 17.2621721,9.34435792 C17.2621721,5.48247268 20.3926366,2.35214481 24.2543852,2.35214481 C28.1162705,2.35214481 31.2468716,5.48247268 31.2468716,9.34435792 C31.2580738,11.3384836 30.4087568,13.2403962 28.9159973,14.563347 L28.9159973,17.3854781 Z" id="Fill-16" fill="#FF5A00"></path>
                    </g>
                </g>
            </g>
        </g>
    </g>
</svg>