<?xml version="1.0" encoding="UTF-8"?>
<svg width="50px" height="54px" viewBox="0 0 50 54" version="1.1" xmlns="http://www.w3.org/2000/svg" xmlns:xlink="http://www.w3.org/1999/xlink">
    <!-- Generator: Sketch 52.2 (67145) - http://www.bohemiancoding.com/sketch -->
    <title>icon-a-2</title>
    <desc>Created with Sketch.</desc>
    <defs>
        <polygon id="path-1" points="0 2.40685472e-05 30.3263695 2.40685472e-05 30.3263695 53.1914894 0 53.1914894"></polygon>
    </defs>
    <g id="Page-1" stroke="none" stroke-width="1" fill="none" fill-rule="evenodd">
        <g id="Apply-PC" transform="translate(-487.000000, -295.000000)">
            <g id="Sec1" transform="translate(0.000000, 60.000000)">
                <g id="2" transform="translate(407.000000, 143.000000)">
                    <g id="icon-a-2" transform="translate(80.000000, 92.000000)">
                        <path d="M23.4299846,8.66470107 L24.7677145,8.66470107 C25.1665303,8.66470107 25.4897709,8.34134014 25.4897709,7.94264465 C25.4897709,7.54382882 25.1665303,7.22058824 24.7677145,7.22058824 L23.4299846,7.22058824 C23.0312891,7.22058824 22.7079282,7.54382882 22.7079282,7.94264465 C22.7079282,8.34134014 23.0312891,8.66470107 23.4299846,8.66470107" id="Fill-1" fill="#000000"></path>
                        <path d="M15.1631848,49.2202031 C14.564961,49.2202031 14.0801001,48.7353423 14.0801001,48.1371185 C14.0801001,47.5388948 14.564961,47.0540339 15.1631848,47.0540339 C15.7614085,47.0540339 16.2462694,47.5388948 16.2462694,48.1371185 C16.2455473,48.7349812 15.7610475,49.2194811 15.1631848,49.2202031 M15.1631848,45.6099211 C13.7674497,45.6099211 12.6359873,46.7412631 12.6359873,48.1371185 C12.6359873,49.5328536 13.7674497,50.664316 15.1631848,50.664316 C16.5589198,50.664316 17.6903822,49.5328536 17.6903822,48.1371185 C17.6888178,46.7419852 16.5583181,45.6114855 15.1631848,45.6099211" id="Fill-3" fill="#000000"></path>
                        <path d="M14.2004429,24.3092568 L8.87046308,24.3092568 C8.47164725,24.3092568 8.14840666,24.6324974 8.14840666,25.0313132 C8.14840666,25.4300087 8.47164725,25.7533696 8.87046308,25.7533696 L14.2004429,25.7533696 C14.5991383,25.7533696 14.9224993,25.4300087 14.9224993,25.0313132 C14.9224993,24.6324974 14.5991383,24.3092568 14.2004429,24.3092568" id="Fill-5" fill="#000000"></path>
                        <path d="M4.45268124,25.7533696 L5.67728892,25.7533696 C6.07610475,25.7533696 6.39934534,25.4300087 6.39934534,25.0313132 C6.39934534,24.6324974 6.07610475,24.3092568 5.67728892,24.3092568 L4.45268124,24.3092568 C4.05398575,24.3092568 3.73062482,24.6324974 3.73062482,25.0313132 C3.73062482,25.4300087 4.05398575,25.7533696 4.45268124,25.7533696" id="Fill-7" fill="#000000"></path>
                        <path d="M14.2004429,29.1229662 L11.9993742,29.1229662 C11.6005584,29.1229662 11.2773178,29.4463271 11.2773178,29.8450226 C11.2773178,30.2437181 11.6005584,30.567079 11.9993742,30.567079 L14.2004429,30.567079 C14.5991383,30.567079 14.9224993,30.2437181 14.9224993,29.8450226 C14.9224993,29.4463271 14.5991383,29.1229662 14.2004429,29.1229662" id="Fill-9" fill="#000000"></path>
                        <path d="M8.80617599,29.1229662 L4.45265717,29.1229662 C4.05396168,29.1229662 3.73060075,29.4463271 3.73060075,29.8450226 C3.73060075,30.2437181 4.05396168,30.567079 4.45265717,30.567079 L8.80617599,30.567079 C9.20499182,30.567079 9.52823241,30.2437181 9.52823241,29.8450226 C9.52823241,29.4463271 9.20499182,29.1229662 8.80617599,29.1229662" id="Fill-11" fill="#000000"></path>
                        <path d="M14.2004429,19.0141764 L13.237701,19.0141764 C12.8390055,19.0141764 12.5156446,19.337417 12.5156446,19.7362328 C12.5156446,20.1349283 12.8390055,20.4582892 13.237701,20.4582892 L14.2004429,20.4582892 C14.5991383,20.4582892 14.9224993,20.1349283 14.9224993,19.7362328 C14.9224993,19.337417 14.5991383,19.0141764 14.2004429,19.0141764" id="Fill-13" fill="#000000"></path>
                        <path d="M4.45268124,20.4582892 L10.0096274,20.4582892 C10.4084432,20.4582892 10.7316838,20.1349283 10.7316838,19.7362328 C10.7316838,19.337417 10.4084432,19.0141764 10.0096274,19.0141764 L4.45268124,19.0141764 C4.05398575,19.0141764 3.73062482,19.337417 3.73062482,19.7362328 C3.73062482,20.1349283 4.05398575,20.4582892 4.45268124,20.4582892" id="Fill-15" fill="#000000"></path>
                        <path d="M47.896409,19.6269375 L19.615866,19.6269375 L19.615866,18.2920959 C19.6168287,17.3619669 20.3705353,16.6082603 21.3006643,16.6072976 L46.2116107,16.6072976 C47.1417397,16.6082603 47.8954462,17.3619669 47.896409,18.2920959 L47.896409,19.6269375 Z M19.615866,23.2372196 L47.896409,23.2372196 L47.896409,21.0710504 L19.615866,21.0710504 L19.615866,23.2372196 Z M47.896409,34.8993935 C47.8954462,35.8295225 47.1417397,36.5831087 46.2116107,36.5841918 L21.3006643,36.5841918 C20.3705353,36.5831087 19.6168287,35.8295225 19.615866,34.8993935 L19.615866,24.6813324 L47.896409,24.6813324 L47.896409,34.8993935 Z M46.2116107,15.1631848 L21.3006643,15.1631848 C19.573385,15.1651102 18.173799,16.5648166 18.1717532,18.2920959 L18.1717532,34.8993935 C18.173799,36.6266728 19.573385,38.0263791 21.3006643,38.0283046 L46.2116107,38.0283046 C47.93889,38.0263791 49.338476,36.6266728 49.3405218,34.8993935 L49.3405218,18.2920959 C49.338476,16.5648166 47.93889,15.1651102 46.2116107,15.1631848 Z" id="Fill-17" fill="#FF5A00"></path>
                        <path d="M42.3568764,33.2885458 C42.2655362,33.2881848 42.1741961,33.282288 42.083578,33.2708554 C43.08146,31.9543059 43.08146,30.1346034 42.083578,28.8181742 C43.3132401,28.6665423 44.4330293,29.5404713 44.5846611,30.7702537 C44.7361726,32.0000361 43.8621233,33.1197049 42.6324612,33.2712164 C42.5410008,33.2825286 42.4490589,33.2881848 42.3568764,33.2880644 L42.3568764,33.2885458 Z M36.8998147,31.0446351 C36.8998147,29.805466 37.9044358,28.8008448 39.1437253,28.8008448 C40.3830148,28.8008448 41.387636,29.805466 41.387636,31.0446351 C41.387636,32.2839246 40.3830148,33.2885458 39.1437253,33.2885458 C37.9051579,33.2871017 36.9012588,32.2833229 36.8998147,31.0446351 Z M42.3568764,27.356732 C41.8002912,27.3568523 41.2509266,27.4834529 40.7503009,27.7269062 C38.9179624,26.8375734 36.7114783,27.6018701 35.8220251,29.434329 C34.932572,31.2665471 35.6968687,33.4730312 37.5293275,34.3626047 C38.5462236,34.8561303 39.7334047,34.8561303 40.7503009,34.3626047 C42.5831207,35.2502527 44.7885217,34.4840305 45.6761697,32.6512106 C46.5638178,30.8185111 45.7977159,28.6129898 43.9647757,27.7253418 C43.4635482,27.4826105 42.9138226,27.3566116 42.3568764,27.356732 Z" id="Fill-19" fill="#FF5A00"></path>
                        <g id="Group-23">
                            <mask id="mask-2" fill="white">
                                <use xlink:href="#path-1"></use>
                            </mask>
                            <g id="Clip-22"></g>
                            <path d="M28.8822567,47.6557476 C28.8797295,49.9144604 27.0494368,51.7448734 24.7906036,51.7474006 L5.53576586,51.7474006 C3.27705305,51.7448734 1.44664003,49.9144604 1.44411283,47.6557476 L1.44411283,44.5268364 L28.8822567,44.5268364 L28.8822567,47.6557476 Z M28.8822567,38.0283287 L28.8822567,43.0827236 L1.44411283,43.0827236 L1.44411283,8.66470107 L21.0599788,8.66470107 C21.4586743,8.66470107 21.7820352,8.34134014 21.7820352,7.94264465 C21.7820352,7.54382882 21.4586743,7.22058824 21.0599788,7.22058824 L1.44411283,7.22058824 L1.44411283,5.53578993 C1.44664003,3.27707712 3.27705305,1.4466641 5.53576586,1.4441369 L24.7906036,1.4441369 C27.0494368,1.4466641 28.8797295,3.27707712 28.8822567,5.53578993 L28.8822567,7.22058824 L27.1974584,7.22058824 C26.7987629,7.22058824 26.4754019,7.54382882 26.4754019,7.94264465 C26.4754019,8.34134014 26.7987629,8.66470107 27.1974584,8.66470107 L28.8822567,8.66470107 L28.8822567,15.1632088 L30.3263695,15.1632088 L30.3263695,5.53578993 C30.3228796,2.47992683 27.8464667,0.00351400789 24.7906036,2.40685472e-05 L5.53576586,2.40685472e-05 C2.47990276,0.00351400789 0.00348993935,2.47992683 0,5.53578993 L0,47.6557476 C0.00348993935,50.7116107 2.47990276,53.1880235 5.53576586,53.1915134 L24.7906036,53.1915134 C27.8464667,53.1880235 30.3228796,50.7116107 30.3263695,47.6557476 L30.3263695,38.0283287 L28.8822567,38.0283287 Z" id="Fill-21" fill="#000000" mask="url(#mask-2)"></path>
                        </g>
                    </g>
                </g>
            </g>
        </g>
    </g>
</svg>