<?xml version="1.0" encoding="UTF-8"?>
<svg width="31px" height="53px" viewBox="0 0 31 53" version="1.1" xmlns="http://www.w3.org/2000/svg" xmlns:xlink="http://www.w3.org/1999/xlink">
    <!-- Generator: Sketch 52.2 (67145) - http://www.bohemiancoding.com/sketch -->
    <title>icon-a-1-4</title>
    <desc>Created with Sketch.</desc>
    <g id="Page-1" stroke="none" stroke-width="1" fill="none" fill-rule="evenodd">
        <g id="Apply-1-PC" transform="translate(-857.000000, -324.000000)">
            <g id="Sec1" transform="translate(0.000000, 60.000000)">
                <g id="4" transform="translate(767.000000, 170.000000)">
                    <g id="icon-a-1-4" transform="translate(90.000000, 94.000000)">
                        <path d="M23.3464041,8.63348416 L24.6773995,8.63348416 C25.072981,8.63348416 25.3968566,8.30972851 25.3968566,7.91402715 C25.3968566,7.51832579 25.072981,7.19457014 24.6773995,7.19457014 L23.3464041,7.19457014 C22.9507027,7.19457014 22.6269471,7.51832579 22.6269471,7.91402715 C22.6269471,8.30972851 22.9507027,8.63348416 23.3464041,8.63348416" id="Fill-1" fill="#000000"></path>
                        <path d="M15.1085973,49.0429864 C14.5090498,49.0429864 14.0294118,48.5633484 14.0294118,47.9638009 C14.0294118,47.3642534 14.5090498,46.8846154 15.1085973,46.8846154 C15.7081448,46.8846154 16.1877828,47.3642534 16.1877828,47.9638009 C16.1877828,48.5633484 15.7081448,49.0429864 15.1085973,49.0429864 M15.1085973,45.4457014 C13.7176471,45.4457014 12.5904977,46.5728507 12.5904977,47.9638009 C12.5904977,49.3547511 13.7176471,50.4819005 15.1085973,50.4819005 C16.4995475,50.4819005 17.6266968,49.3547511 17.6266968,47.9638009 C17.6266968,46.5728507 16.4995475,45.4457014 15.1085973,45.4457014" id="Fill-3" fill="#000000"></path>
                        <path d="M28.7782805,47.4841629 C28.7782805,49.7384615 26.9556561,51.561086 24.7013575,51.561086 L5.5158371,51.561086 C3.26153846,51.561086 1.43891403,49.7384615 1.43891403,47.4841629 L1.43891403,44.3665158 L28.7782805,44.3665158 L28.7782805,47.4841629 Z M30.2171946,5.5158371 C30.2171946,2.47013575 27.7470588,0 24.7013575,0 L5.5158371,0 C2.47013575,0 0,2.47013575 0,5.5158371 L0,47.4841629 C0,50.5298643 2.47013575,53 5.5158371,53 L24.7013575,53 C27.7470588,53 30.2171946,50.5298643 30.2171946,47.4841629 L30.2171946,5.5158371 Z M28.7782805,42.9276018 L1.43891403,42.9276018 L1.43891403,8.63348416 L20.9841629,8.63348416 C21.3798643,8.63348416 21.7036199,8.30972851 21.7036199,7.91402715 C21.7036199,7.51832579 21.3798643,7.19457014 20.9841629,7.19457014 L1.43891403,7.19457014 L1.43891403,5.5158371 C1.43891403,3.26153846 3.26153846,1.43891403 5.5158371,1.43891403 L24.7013575,1.43891403 C26.9556561,1.43891403 28.7782805,3.26153846 28.7782805,5.5158371 L28.7782805,7.19457014 L27.0995475,7.19457014 C26.7038462,7.19457014 26.3800905,7.51832579 26.3800905,7.91402715 C26.3800905,8.30972851 26.7038462,8.63348416 27.0995475,8.63348416 L28.7782805,8.63348416 L28.7782805,42.9276018 Z" id="Fill-5" fill="#000000"></path>
                        <path d="M19.2982952,22.3525821 L11.8041912,22.3525821 L12.0952115,21.641159 C12.1570848,21.4893536 12.111879,21.3158446 11.9839355,21.213202 C11.8559921,21.1107993 11.675888,21.1050437 11.5412296,21.1985731 L9.18956448,22.8321002 C9.08656222,22.9035663 9.02672738,23.0223966 9.03056448,23.147702 C9.03440158,23.2730075 9.101431,23.3878808 9.20863009,23.4529916 L11.6676143,24.9461048 C11.8075486,25.0310007 11.9863337,25.0140934 12.107802,24.9044962 C12.2292704,24.7950188 12.2645238,24.6167133 12.1944966,24.4689848 L11.8713405,23.7852609 L19.2982952,23.7852609 C19.5497455,23.7852609 19.7541912,23.9936636 19.7541912,24.2449939 L19.7541912,29.9831432 C19.7541912,30.2343536 19.5497455,30.4350821 19.2982952,30.4350821 L11.5080147,30.4350821 C11.1719084,30.4350821 10.8992342,30.7076364 10.8992342,31.0437428 L10.8992342,31.2589803 C10.8992342,31.5952066 11.1719084,31.8678808 11.5080147,31.8678808 L19.2982952,31.8678808 C20.3397093,31.8678808 21.18675,31.0244373 21.18675,29.9831432 L21.18675,24.2449939 C21.1868699,23.2035799 20.3397093,22.3525821 19.2982952,22.3525821" id="Fill-7" fill="#FF5A00"></path>
                    </g>
                </g>
            </g>
        </g>
    </g>
</svg>