<?xml version="1.0" encoding="UTF-8"?>
<svg width="30px" height="52px" viewBox="0 0 30 52" version="1.1" xmlns="http://www.w3.org/2000/svg" xmlns:xlink="http://www.w3.org/1999/xlink">
    <!-- Generator: Sketch 52.2 (67145) - http://www.bohemiancoding.com/sketch -->
    <title>icon-a-1-3</title>
    <desc>Created with Sketch.</desc>
    <g id="Page-1" stroke="none" stroke-width="1" fill="none" fill-rule="evenodd">
        <g id="Apply-1-PC" transform="translate(-617.000000, -324.000000)">
            <g id="Sec1" transform="translate(0.000000, 60.000000)">
                <g id="3" transform="translate(527.000000, 170.000000)">
                    <g id="icon-a-1-3" transform="translate(90.000000, 94.000000)">
                        <path d="M22.3494242,8.83018868 C21.928939,8.83018868 21.5849057,8.38867925 21.5849057,7.8490566 C21.5849057,7.30943396 21.928939,6.86792453 22.3494242,6.86792453 L23.7637834,6.86792453 C24.1841411,6.86792453 24.5283019,7.30943396 24.5283019,7.8490566 C24.5283019,8.38867925 24.1841411,8.83018868 23.7637834,8.83018868 L22.3494242,8.83018868 Z M15.2075472,47.6549865 C15.7915544,47.6549865 16.2587601,47.1877808 16.2587601,46.6037736 C16.2587601,46.0197664 15.7915544,45.5525606 15.2075472,45.5525606 C14.62354,45.5525606 14.1563342,46.0197664 14.1563342,46.6037736 C14.1563342,47.1877808 14.62354,47.6549865 15.2075472,47.6549865 Z M15.2075472,44.1509434 C16.5624438,44.1509434 17.6603774,45.2488769 17.6603774,46.6037736 C17.6603774,47.9586703 16.5624438,49.0566038 15.2075472,49.0566038 C13.8526505,49.0566038 12.754717,47.9586703 12.754717,46.6037736 C12.754717,45.2488769 13.8526505,44.1509434 15.2075472,44.1509434 Z M28.032345,46.5882353 L28.032345,43.5294118 L1.40161725,43.5294118 L1.40161725,46.5882353 C1.40161725,48.8 3.1769991,50.5882353 5.37286613,50.5882353 L24.0610961,50.5882353 C26.2569632,50.5882353 28.032345,48.8 28.032345,46.5882353 Z M29.4339623,5.41176471 L29.4339623,46.5882353 C29.4339623,49.5764706 27.0278527,52 24.0610961,52 L5.37286613,52 C2.40610961,52 1.42108547e-14,49.5764706 1.42108547e-14,46.5882353 L1.42108547e-14,5.41176471 C1.42108547e-14,2.42352941 2.40610961,0 5.37286613,0 L24.0610961,0 C27.0278527,0 29.4339623,2.42352941 29.4339623,5.41176471 Z M28.032345,42.1176471 L28.032345,8.47058824 L26.3971249,8.47058824 C26.0116801,8.47058824 25.6963163,8.15294118 25.6963163,7.76470588 C25.6963163,7.37647059 26.0116801,7.05882353 26.3971249,7.05882353 L28.032345,7.05882353 L28.032345,5.41176471 C28.032345,3.2 26.2569632,1.41176471 24.0610961,1.41176471 L5.37286613,1.41176471 C3.1769991,1.41176471 1.40161725,3.2 1.40161725,5.41176471 L1.40161725,7.05882353 L20.4402516,7.05882353 C20.8256963,7.05882353 21.1410602,7.37647059 21.1410602,7.76470588 C21.1410602,8.15294118 20.8256963,8.47058824 20.4402516,8.47058824 L1.40161725,8.47058824 L1.40161725,42.1176471 L28.032345,42.1176471 Z" id="Combined-Shape" fill="#000000"></path>
                        <path d="M23.1488457,30.7630621 C23.1488457,31.8398805 22.5517539,32.8101418 21.5906099,33.2952724 L21.5709001,33.305244 L15.982584,36.5900792 C15.1883938,36.9836102 14.2455684,36.9836102 13.4514942,36.5900792 L7.88230824,33.3163751 L7.84358422,33.2953883 C6.88244023,32.8101418 6.28523243,31.8398805 6.28523243,30.7630621 L6.28523243,18.6317818 C6.28523243,18.6020989 6.30529008,18.5761263 6.3339273,18.5685896 L14.7170971,16.1184712 L23.082528,18.5638357 L23.1001509,18.5687056 C23.1287881,18.5762422 23.1488457,18.6022148 23.1488457,18.6318978 L23.1488457,30.7630621 Z M23.462232,17.2372632 L14.9543106,14.750273 L14.9364559,14.7452872 C14.7929219,14.7074878 14.6413881,14.7076038 14.4979701,14.7452872 L14.4888109,14.7477221 L5.97184616,17.2372632 C5.34356639,17.4079401 4.90566038,17.9798006 4.90566038,18.6317818 L4.90566038,30.7630621 C4.90566038,32.3558536 5.78483467,33.7919979 7.20139164,34.5165632 L12.7724326,37.7913109 L12.8111566,37.8125296 C13.4079007,38.1137651 14.0624989,38.2641509 14.7169811,38.2641509 C15.3715793,38.2641509 16.0261775,38.1137651 16.6228056,37.8125296 L16.6425154,37.802558 L22.2325706,34.5165632 C23.6492435,33.7919979 24.5283019,32.3559695 24.5283019,30.7630621 L24.5283019,18.6317818 C24.5284178,17.9796846 24.0905118,17.4078241 23.462232,17.2372632 Z" id="Fill-7" fill="#FF5A00"></path>
                        <path d="M14.7169811,30.0220159 C12.2287826,30.0220159 10.2045012,27.9977146 10.2045012,25.5094917 C10.2045012,23.0212688 12.2287826,20.9969675 14.7169811,20.9969675 C17.2051797,20.9969675 19.2294611,23.0211533 19.2294611,25.5094917 C19.2294611,27.9977146 17.2051797,30.0220159 14.7169811,30.0220159 M14.7169811,19.6226415 C11.4710629,19.6226415 8.83018868,22.2634262 8.83018868,25.5094917 C8.83018868,28.7554418 11.4710629,31.3962264 14.7169811,31.3962264 C17.9628993,31.3962264 20.6037736,28.7554418 20.6037736,25.5094917 C20.6037736,22.2634262 17.9630148,19.6226415 14.7169811,19.6226415" id="Fill-9" fill="#FF5A00"></path>
                        <path d="M15.0244767,26.819558 L15.0244767,25.697305 C15.3493552,25.85919 15.5120318,26.0573809 15.5120318,26.2918778 C15.5120318,26.5655404 15.3493552,26.7414752 15.0244767,26.819558 Z M14.5769084,24.147835 C14.235774,23.9970159 14.0653848,23.8212054 14.0653848,23.6201548 C14.0653848,23.3801871 14.235774,23.223773 14.5769084,23.151161 L14.5769084,24.147835 Z M16.5793374,25.5631469 C16.5124158,25.384601 16.432442,25.2366417 16.3392975,25.1193932 C16.2460343,25.0021448 16.122158,24.8904914 15.9676687,24.7843088 C15.8130607,24.6783749 15.6745898,24.5973081 15.5520187,24.5414815 C15.4294477,24.4856548 15.2802978,24.4213733 15.1044504,24.3488856 L15.1044504,23.1260452 C15.2963163,23.1427062 15.4814187,23.1986572 15.6599952,23.2935252 C15.8384529,23.3885176 15.9649396,23.4358895 16.0396925,23.4358895 C16.1940632,23.4358895 16.3154477,23.356439 16.4033714,23.1976625 C16.4911764,23.0386373 16.5351976,22.8853315 16.5351976,22.7377452 C16.5351976,22.5997327 16.4858369,22.4788785 16.3873529,22.3751826 C16.2886316,22.2717354 16.1595345,22.19415 15.9997056,22.1423021 C15.8398768,22.0904541 15.6879978,22.0531535 15.5440688,22.0301514 C15.4002584,22.0071493 15.2536003,21.9927264 15.1045691,21.9868826 L15.1045691,21.7936651 C15.1045691,21.7420658 15.0725321,21.6944453 15.0085768,21.6506792 C14.9446216,21.6069131 14.8753268,21.5849057 14.8008112,21.5849057 C14.7154979,21.5849057 14.6435927,21.605794 14.584977,21.6470735 C14.5263612,21.6886015 14.4970533,21.7378384 14.4970533,21.7945355 L14.4970533,22.0121227 C14.0334665,22.080383 13.6510401,22.2597992 13.3501299,22.5502471 C13.0489824,22.8405707 12.8985274,23.2390662 12.8985274,23.7457337 C12.8985274,23.9523795 12.9330561,24.1408722 13.0023509,24.3110876 C13.0716456,24.4815517 13.1515007,24.6210562 13.2421535,24.7298499 C13.3328062,24.8387678 13.4605981,24.9449504 13.6257665,25.048149 C13.7909348,25.1514718 13.9295244,25.2281869 14.0414164,25.2784185 C14.1533085,25.3287744 14.3051875,25.3929315 14.4970533,25.4710143 L14.4970533,26.8278885 C14.2892876,26.7889714 14.0626558,26.6786858 13.8176323,26.4970315 C13.5726089,26.3157502 13.3992533,26.2248609 13.2981588,26.2248609 C13.1542298,26.2248609 13.0276245,26.3031923 12.9184615,26.4594821 C12.8091798,26.615772 12.754717,26.7721861 12.754717,26.928476 C12.754717,27.2021386 12.92653,27.4477013 13.2701562,27.6655373 C13.6139009,27.8832489 14.0227875,28.0004973 14.497172,28.0172826 L14.497172,28.2265394 C14.497172,28.2880855 14.5263612,28.3409282 14.584977,28.3858133 C14.6437114,28.4303254 14.7154979,28.4528302 14.8008112,28.4528302 C14.8754455,28.4528302 14.9447402,28.4288334 15.0086955,28.3815859 C15.0725321,28.3340897 15.1045691,28.2823661 15.1045691,28.2265394 L15.1045691,27.983712 C15.5841743,27.8999099 15.9664821,27.7018433 16.2516111,27.389015 C16.5366215,27.076311 16.6792453,26.6661279 16.6792453,26.157844 C16.6791266,25.9401324 16.6459031,25.7419415 16.5793374,25.5631469 Z" id="Fill-11" fill="#FF5A00"></path>
                    </g>
                </g>
            </g>
        </g>
    </g>
</svg>