<?xml version="1.0" encoding="UTF-8"?>
<svg width="46px" height="53px" viewBox="0 0 46 53" version="1.1" xmlns="http://www.w3.org/2000/svg" xmlns:xlink="http://www.w3.org/1999/xlink">
    <!-- Generator: Sketch 52.2 (67145) - http://www.bohemiancoding.com/sketch -->
    <title>icon-a-1-1</title>
    <desc>Created with Sketch.</desc>
    <defs>
        <polygon id="path-1" points="0 0 45.9174973 0 45.9174973 53 0 53"></polygon>
    </defs>
    <g id="Page-1" stroke="none" stroke-width="1" fill="none" fill-rule="evenodd">
        <g id="Apply-1-PC" transform="translate(-129.000000, -314.000000)">
            <g id="Sec1" transform="translate(0.000000, 60.000000)">
                <g id="1" transform="translate(47.000000, 170.000000)">
                    <g id="icon-a-1-1" transform="translate(82.000000, 84.000000)">
                        <path d="M22.4152348,34.3392036 C18.0926172,34.3392036 14.5760312,30.8226176 14.5760312,26.5 C14.5760312,22.1773824 18.0926172,18.6607964 22.4152348,18.6607964 C26.7378525,18.6607964 30.2544385,22.1773824 30.2544385,26.5 C30.2544385,30.8226176 26.7378525,34.3392036 22.4152348,34.3392036 M22.4152348,17.2218824 C17.299176,17.2218824 13.1371172,21.3839412 13.1371172,26.5 C13.1371172,31.6159389 17.299176,35.7781176 22.4152348,35.7781176 C27.5311738,35.7781176 31.6933525,31.6159389 31.6933525,26.5 C31.6933525,21.3839412 27.5311738,17.2218824 22.4152348,17.2218824" id="Fill-1" fill="#FF5A00"></path>
                        <path d="M22.4152348,23.9522109 C22.8842009,23.9522109 23.2645538,24.3324439 23.2645538,24.8015299 L24.9630719,24.8015299 C24.9630719,23.6922471 24.2539271,22.7490389 23.2645538,22.3992629 L23.2645538,21.4043738 L21.5660357,21.4043738 L21.5660357,22.3992629 C20.5765425,22.7490389 19.8673977,23.6922471 19.8673977,24.8015299 C19.8673977,26.208548 21.0080968,27.349367 22.4152348,27.349367 C22.8842009,27.349367 23.2645538,27.7294801 23.2645538,28.1985661 C23.2645538,28.667652 22.8842009,29.0478851 22.4152348,29.0478851 C21.9462688,29.0478851 21.5659158,28.667652 21.5659158,28.1985661 L19.8673977,28.1985661 C19.8673977,29.3078489 20.5765425,30.251057 21.5659158,30.600833 L21.5659158,31.5956023 L23.2644339,31.5956023 L23.2644339,30.600833 C24.2538072,30.2509371 24.962952,29.3078489 24.962952,28.1985661 C24.962952,26.7914281 23.8222529,25.650729 22.4151149,25.650729 C21.9461489,25.650729 21.5659158,25.2704959 21.5659158,24.80141 C21.5659158,24.3324439 21.9462688,23.9522109 22.4152348,23.9522109" id="Fill-3" fill="#FF5A00"></path>
                        <path d="M4.13295679,34.0464566 C2.64739796,34.0464566 1.43895,35.2549045 1.43895,36.7404633 C1.43895,38.2259023 2.64739796,39.43459 4.13295679,39.43459 L7.30660158,39.43459 L7.30660158,34.0464566 L4.13295679,34.0464566 Z M8.74551561,40.8735041 L4.13295679,40.8735041 C1.8540767,40.8735041 3.59728507e-05,39.0194633 3.59728507e-05,36.7404633 C3.59728507e-05,34.4615833 1.8540767,32.6075425 4.13295679,32.6075425 L8.74551561,32.6075425 L8.74551561,40.8735041 Z" id="Fill-5" fill="#000000"></path>
                        <g id="Group-9">
                            <mask id="mask-2" fill="white">
                                <use xlink:href="#path-1"></use>
                            </mask>
                            <g id="Clip-8"></g>
                            <path d="M36.0849181,7.19457014 L34.4061851,7.19457014 C34.0104837,7.19457014 33.6867281,7.51832579 33.6867281,7.91402715 C33.6867281,8.30972851 34.0104837,8.63348416 34.4061851,8.63348416 L36.0849181,8.63348416 L36.0849181,42.9276018 L8.74555158,42.9276018 L8.74555158,8.63348416 L28.2908005,8.63348416 C28.6865018,8.63348416 29.0102575,8.30972851 29.0102575,7.91402715 C29.0102575,7.51832579 28.6865018,7.19457014 28.2908005,7.19457014 L8.74555158,7.19457014 L8.74555158,5.5158371 C8.74555158,3.26153846 10.568176,1.43891403 12.8224747,1.43891403 L32.007995,1.43891403 C34.2622937,1.43891403 36.0849181,3.26153846 36.0849181,5.5158371 L36.0849181,7.19457014 Z M36.0849181,47.4841629 C36.0849181,49.7384615 34.2622937,51.561086 32.007995,51.561086 L12.8224747,51.561086 C10.568176,51.561086 8.74555158,49.7384615 8.74555158,47.4841629 L8.74555158,44.3665158 L36.0849181,44.3665158 L36.0849181,47.4841629 Z M7.30663756,18.9534955 L4.13299276,18.9534955 C2.64743394,18.9534955 1.43886606,17.7450475 1.43886606,16.2594887 C1.43886606,14.7739299 2.64743394,13.5654819 4.13299276,13.5654819 L7.30663756,13.5654819 L7.30663756,18.9534955 Z M7.30663756,25.780543 L4.13299276,25.780543 C2.64743394,25.780543 1.43886606,24.5719751 1.43886606,23.0865362 C1.43886606,21.6009774 2.64743394,20.3924095 4.13299276,20.3924095 L7.30663756,20.3924095 L7.30663756,25.780543 Z M7.30663756,32.6075905 L4.13299276,32.6075905 C2.64743394,32.6075905 1.43886606,31.3989027 1.43886606,29.9134638 C1.43886606,28.427905 2.64743394,27.219457 4.13299276,27.219457 L7.30663756,27.219457 L7.30663756,32.6075905 Z M45.1980403,11.9909502 C41.9782303,11.9909502 39.1452484,13.6708824 37.5238321,16.1986946 L37.5238321,5.5158371 C37.5238321,2.47013575 35.0536964,0 32.007995,0 L12.8224747,0 C9.7767733,0 7.30663756,2.47013575 7.30663756,5.5158371 L7.30663756,12.1265679 L4.13299276,12.1265679 C1.85399276,12.1265679 -4.79638009e-05,13.9806086 -4.79638009e-05,16.2594887 C-4.79638009e-05,17.6759796 0.716651131,18.9280747 1.80602896,19.6729525 C0.716651131,20.4179502 -4.79638009e-05,21.6700452 -4.79638009e-05,23.0865362 C-4.79638009e-05,24.5030271 0.716651131,25.7550023 1.80602896,26.5 C0.716651131,27.2449977 -4.79638009e-05,28.4969729 -4.79638009e-05,29.9134638 C-4.79638009e-05,32.1924638 1.85399276,34.0465045 4.13299276,34.0465045 L7.30663756,34.0465045 L7.30663756,47.4841629 C7.30663756,50.5298643 9.7767733,53 12.8224747,53 L32.007995,53 C35.0536964,53 37.5238321,50.5298643 37.5238321,47.4841629 L37.5238321,21.1040724 C37.5238321,17.115043 40.5830833,13.8271244 44.4785833,13.463319 L44.4785833,51.561086 L45.9174973,51.561086 L45.9174973,12.7104072 C45.9174973,12.3130271 45.5953005,11.9909502 45.1980403,11.9909502 Z M31.9840131,7.19457014 L30.6530176,7.19457014 C30.2573163,7.19457014 29.9335606,7.51832579 29.9335606,7.91402715 C29.9335606,8.30972851 30.2573163,8.63348416 30.6530176,8.63348416 L31.9840131,8.63348416 C32.3797145,8.63348416 32.7034701,8.30972851 32.7034701,7.91402715 C32.7034701,7.51832579 32.3797145,7.19457014 31.9840131,7.19457014 Z M22.4152348,46.8846154 C23.0147824,46.8846154 23.4944204,47.3642534 23.4944204,47.9638009 C23.4944204,48.5633484 23.0147824,49.0429864 22.4152348,49.0429864 C21.8156873,49.0429864 21.3360493,48.5633484 21.3360493,47.9638009 C21.3360493,47.3642534 21.8156873,46.8846154 22.4152348,46.8846154 Z M22.4152348,50.4819005 C23.8061851,50.4819005 24.9333344,49.3547511 24.9333344,47.9638009 C24.9333344,46.5728507 23.8061851,45.4457014 22.4152348,45.4457014 C21.0242846,45.4457014 19.8971353,46.5728507 19.8971353,47.9638009 C19.8971353,49.3547511 21.0242846,50.4819005 22.4152348,50.4819005 Z" id="Fill-7" fill="#000000" mask="url(#mask-2)"></path>
                        </g>
                    </g>
                </g>
            </g>
        </g>
    </g>
</svg>